# xmcd CD database file
# Copyright (C) 1993-1998 Ti Kan
#
# Track frame offsets:
#	150
#	11312
#	22565
#	33975
#	47255
#	60430
#	71712
#	83157
#	91552
#	102825
#	114857
#	125450
#
# Disc length: 1826 seconds
#
# Revision: 1
# Processed by: cddbd v1.4b41PL1 Copyright (c) Steve Scherf et al.
# Submitted via: CDValet v3.31 - Copyright (c) 1997 Greg Leichner
#
DISCID=7607200c
DTITLE=Jim Reeves - Moonlight And Roses
DYEAR=1900
DGENRE=
TTITLE0=Moonlight And Roses (Bring Mem'ries Of You)
TTITLE1=Mexicali Roses
TTITLE2=Carolina Moon
TTITLE3=Rosa Rio
TTITLE4=Oh What It Seemed To Me
TTITLE5=What's In It For Me
TTITLE6=Roses
TTITLE7=One Dozen Roses
TTITLE8=Moon River
TTITLE9=There's A New Moon Over My Shoulders
TTITLE10=It's Only A Paper Moon
TTITLE11=When I Lost You
EXTD=Produced By Chet Atkins
EXTT0=
EXTT1=
EXTT2=
EXTT3=
EXTT4=
EXTT5=
EXTT6=
EXTT7=
EXTT8=
EXTT9=
EXTT10=
EXTT11=
PLAYORDER=
